<svg xmlns="http://www.w3.org/2000/svg" viewBox="0 0 64 64" role="img" aria-label="Insurance Management System">
  <defs>
    <linearGradient id="bg" x1="10" x2="54" y1="6" y2="58" gradientUnits="userSpaceOnUse">
      <stop offset="0" stop-color="#2563eb"/>
      <stop offset="1" stop-color="#14b8a6"/>
    </linearGradient>
    <linearGradient id="shine" x1="18" x2="48" y1="10" y2="45" gradientUnits="userSpaceOnUse">
      <stop offset="0" stop-color="#ffffff" stop-opacity=".55"/>
      <stop offset="1" stop-color="#ffffff" stop-opacity=".08"/>
    </linearGradient>
  </defs>
  <rect width="64" height="64" rx="14" fill="#0f172a"/>
  <path fill="url(#bg)" d="M32 7 52 15v15c0 13.5-8.7 22.8-20 27-11.3-4.2-20-13.5-20-27V15l20-8Z"/>
  <path fill="url(#shine)" d="M32 10.8 48 17.2v12.3c0 10.2-5.9 17.9-16 22.1V10.8Z"/>
  <path fill="#e0f2fe" d="m20.6 33.8 3.2-8.1c.6-1.6 2.2-2.7 3.9-2.7h8.6c1.8 0 3.3 1.1 3.9 2.7l3.2 8.1c1.4.5 2.4 1.8 2.4 3.4v6.9c0 .8-.6 1.4-1.4 1.4h-3.1c-.8 0-1.4-.6-1.4-1.4v-1.4H24.1v1.4c0 .8-.6 1.4-1.4 1.4h-3.1c-.8 0-1.4-.6-1.4-1.4v-6.9c0-1.6 1-2.9 2.4-3.4Z"/>
  <path fill="#0f172a" d="m25.6 27.5-1.9 5h16.6l-1.9-5c-.3-.8-1.1-1.3-2-1.3h-8.8c-.9 0-1.7.5-2 1.3Z"/>
  <circle cx="24.7" cy="38.4" r="2.6" fill="#0f172a"/>
  <circle cx="39.3" cy="38.4" r="2.6" fill="#0f172a"/>
  <path fill="#14b8a6" d="M30.4 42.4h3.2v5h-3.2z"/>
  <path fill="#e0f2fe" d="m27.7 45.1 4.3 4.3 4.3-4.3 2.2 2.2-6.5 6.5-6.5-6.5 2.2-2.2Z"/>
</svg>
